<svg width="355" height="44" viewBox="0 0 355 44" fill="none" xmlns="http://www.w3.org/2000/svg">
<path d="M27.96 15.4102C27.01 10.8602 24.3598 8.6001 20.0498 8.6001C13.9398 8.6001 10.3896 13.4002 10.3896 21.6602C10.3896 29.9202 14.0898 34.77 20.2998 34.77C23.0498 34.77 25.3999 33.6201 26.8599 31.6201C27.7099 30.4201 28.0599 29.4203 28.3599 27.3203L38.77 28.8701C37.82 33.1201 36.7201 35.5803 34.6201 38.0303C31.5201 41.5803 26.6599 43.48 20.6099 43.48C14.5599 43.48 9.3498 41.58 5.7998 37.98C2.0998 34.23 0 28.3699 0 21.6699C0 14.9699 2.10006 9.10996 6.06006 5.20996C9.51006 1.85996 14.5699 0.0102539 20.4199 0.0102539C26.8799 0.0102539 31.9297 2.21031 35.1797 6.57031C36.7797 8.62031 37.6298 10.4702 38.2798 13.4302L27.9697 15.4302L27.96 15.4102Z" fill="#47EA4E"/>
<path d="M74.8896 42.8799C72.7396 42.6299 70.9399 42.5303 66.6299 42.5303H50.8701C47.0701 42.5303 45.6698 42.5802 43.5098 42.6802C43.8098 40.6802 43.9097 38.8301 43.9097 35.3701V8.05029C43.9097 4.95029 43.8098 3.20023 43.5098 0.740234C45.5598 0.840234 46.9601 0.890137 50.8701 0.890137H66.8301C70.2301 0.890137 71.93 0.790039 74.29 0.540039V9.8999C71.99 9.6499 70.1901 9.55029 66.8301 9.55029H53.8198V16.9102H64.6299C67.9299 16.9102 69.1296 16.8601 72.1396 16.5601V25.8203C69.7896 25.5703 68.0899 25.4702 64.6299 25.4702H53.8198V33.8799H66.73C70.53 33.8799 72.7396 33.7803 74.8896 33.5303V42.8901V42.8799Z" fill="#47EA4E"/>
<path d="M103.91 21.3701C105.36 23.5201 106.31 25.1203 107.51 27.3203C107.31 25.0203 107.21 22.7202 107.21 19.9102V8.5C107.21 5.2 107.11 3.20014 106.81 0.890137H117.47C117.17 3.14014 117.07 5.24 117.07 8.5V35.0703C117.07 38.1203 117.22 40.4203 117.47 42.5303H106.51C105.61 40.6303 104.46 38.7799 102.76 36.1699L93.5 22.21C92.15 20.21 91.2999 18.7103 89.8999 16.0503C90.1499 18.3003 90.25 21.0503 90.25 23.5103V34.7202C90.25 38.1702 90.3499 40.3703 90.6499 42.5303H79.9897C80.2897 40.5803 80.3896 38.3799 80.3896 34.6699V8.3501C80.3896 5.4501 80.2897 3.20014 79.9897 0.890137H90.8501C91.3501 2.24014 92.4499 4.2399 94.3999 7.1499L103.91 21.3599V21.3701Z" fill="#47EA4E"/>
<path d="M150.45 15.4102C149.5 10.8602 146.85 8.6001 142.54 8.6001C136.43 8.6001 132.88 13.4002 132.88 21.6602C132.88 29.9202 136.58 34.77 142.79 34.77C145.54 34.77 147.89 33.6201 149.35 31.6201C150.2 30.4201 150.55 29.4203 150.85 27.3203L161.26 28.8701C160.31 33.1201 159.21 35.5803 157.11 38.0303C154.01 41.5803 149.15 43.48 143.1 43.48C137.05 43.48 131.84 41.58 128.29 37.98C124.59 34.23 122.49 28.3699 122.49 21.6699C122.49 14.9699 124.59 9.10996 128.55 5.20996C132 1.85996 137.06 0.0102539 142.91 0.0102539C149.37 0.0102539 154.42 2.21031 157.67 6.57031C159.27 8.62031 160.12 10.4702 160.77 13.4302L150.46 15.4302L150.45 15.4102Z" fill="#47EA4E"/>
<path d="M205.14 21.52C205.14 34.73 197.08 43.4902 184.92 43.4902C172.76 43.4902 164.75 34.9299 164.75 21.6699C164.75 8.40992 172.66 0 184.97 0C197.28 0 205.14 8.41002 205.14 21.52ZM194.73 21.6201C194.73 13.5101 191.03 8.60986 184.97 8.60986C178.91 8.60986 175.11 13.5601 175.11 21.6201C175.11 29.6801 178.86 34.8301 184.97 34.8301C191.08 34.8301 194.73 29.8301 194.73 21.6201Z" fill="#47EA4E"/>
<path d="M249.28 21.52C249.28 34.73 241.22 43.4902 229.06 43.4902C216.9 43.4902 208.89 34.9299 208.89 21.6699C208.89 8.40992 216.8 0 229.11 0C241.42 0 249.28 8.41002 249.28 21.52ZM238.87 21.6201C238.87 13.5101 235.17 8.60986 229.11 8.60986C223.05 8.60986 219.25 13.5601 219.25 21.6201C219.25 29.6801 223 34.8301 229.11 34.8301C235.22 34.8301 238.87 29.8301 238.87 21.6201Z" fill="#47EA4E"/>
<path d="M261.68 42.5303C258.23 42.5303 256.18 42.5802 254.27 42.6802C254.57 40.9302 254.67 38.7301 254.67 35.3701V8.9502C254.67 5.4502 254.57 3.30014 254.27 0.890137H265.18C264.83 3.49014 264.78 4.89029 264.78 8.80029V33.6201H276.89C281.14 33.6201 282.84 33.57 285.2 33.27V42.8799C283.35 42.6299 280.9 42.5303 276.89 42.5303H261.68Z" fill="#47EA4E"/>
<path d="M354.56 10.9302H349.31V5.25H343.75V0.120117H322.84V5.25H317.26V10.9302H312.03V31.8501H317.26V37.3101H322.84V42.6499H343.75V37.3101H349.31V31.8501H354.56V10.9302Z" fill="#FF1D25"/>
</svg>
